<svg id="visual" viewBox="0 0 900 600" width="900" height="600" xmlns="http://www.w3.org/2000/svg" xmlns:xlink="http://www.w3.org/1999/xlink" version="1.1"><g transform="translate(440.2736935801754 317.6288818398807)"><path d="M115.4 -119.7C186.7 -107 307.4 -123 351 -90.1C394.7 -57.2 361.4 24.7 303.7 66.6C246 108.6 163.8 110.5 109.2 121.6C54.5 132.6 27.2 152.8 -8.2 164.1C-43.7 175.5 -87.4 177.9 -140.5 166.4C-193.6 154.8 -256.1 129.2 -299.6 77.9C-343 26.6 -367.4 -50.4 -340 -103C-312.6 -155.5 -233.3 -183.7 -168 -198.4C-102.7 -213 -51.3 -214 -14.6 -193.8C22 -173.7 44.1 -132.3 115.4 -119.7" fill="#FFA500"></path></g></svg>