<svg id="visual" viewBox="0 0 900 600" width="900" height="600" xmlns="http://www.w3.org/2000/svg" xmlns:xlink="http://www.w3.org/1999/xlink" version="1.1"><g transform="translate(538.594949896117 226.2601472702586)"><path d="M173.7 -202.6C232.2 -196.6 291.6 -155.3 290.7 -106.6C289.8 -57.9 228.6 -1.8 207.5 68.8C186.4 139.3 205.5 224.2 177.6 273.8C149.7 323.4 74.8 337.7 -6.3 346.3C-87.4 354.9 -174.8 357.9 -269.9 330.1C-365 302.4 -467.8 243.9 -467.9 169.5C-467.9 95.2 -365.2 4.9 -299.8 -66.8C-234.4 -138.6 -206.2 -191.9 -162.5 -202.6C-118.7 -213.4 -59.4 -181.7 -0.9 -180.5C57.6 -179.3 115.2 -208.6 173.7 -202.6" fill="#FFA500"></path></g></svg>