<svg width="801" height="1059" viewBox="0 0 801 1059" fill="none" xmlns="http://www.w3.org/2000/svg">
<path d="M647.477 820.064C628.609 897.501 548.63 955.282 548.63 955.282C548.63 955.282 531.941 995.28 490.65 1002.23C490.65 1002.23 490.041 991.022 495.74 977.907C472.993 1006.45 432.703 1022.48 410.254 1038.53L410.104 1038.54C386.587 1024.09 345.277 1010.92 320.591 984.034C327.192 996.718 327.367 1007.94 327.367 1007.94C285.692 1003.89 266.248 965.159 266.248 965.159C266.248 965.159 184.39 914.324 159.074 839.851C161.171 835.889 134.805 810.112 137.092 805.844C143.08 795.255 133.541 770.625 135.431 758.344C137.175 746.185 126.593 726.08 123.886 714.527C120.262 699.169 141.026 704.583 138.845 688.974C138.92 682.997 163.75 699.216 166.574 695.53C189.089 703.286 210.178 705.569 229.628 704.872C251.61 704.086 271.546 699.651 289.62 695.414C307.694 691.161 323.957 687.171 338.375 686.7C343.292 686.528 348.005 686.747 352.535 687.44C359.346 688.487 365.761 690.582 372.195 694.211C378.341 697.701 384.505 702.642 390.79 709.647C392.551 712.272 395.543 713.853 398.743 713.741L398.893 713.736C402.11 713.623 404.984 711.821 406.539 709.063C414.349 699.061 422.157 692.814 430.211 688.828C434.393 686.746 438.664 685.278 443.151 684.271C447.621 683.263 452.291 682.716 457.208 682.544C471.623 682.006 488.126 684.85 506.469 687.83C524.795 690.793 544.975 693.825 566.976 693.072C586.943 692.39 608.398 688.453 630.964 678.586C634.491 682.1 650.151 669.421 650.673 675.777C649.588 691.501 671.581 684.341 669.039 699.915C667.146 711.629 668.509 746.79 671.099 758.798C673.825 770.917 655.785 789.003 662.498 799.148C664.494 802.298 645.604 817.093 647.477 820.064Z" fill="#E7C8A6" style="fill:#E7C8A6;fill:color(display-p3 0.9059 0.7843 0.6510);fill-opacity:1;"/>
<path d="M637.647 777.573L639.144 820.356L647.477 820.064L639.382 818.095C634.931 836.372 626.794 853.728 616.999 869.456C602.305 893.065 583.912 912.965 569.212 926.862C561.863 933.81 555.446 939.274 550.886 942.972C548.615 944.82 546.795 946.235 545.576 947.162C544.959 947.634 544.487 947.985 544.195 948.212C544.049 948.334 543.934 948.404 543.853 948.457L543.771 948.51L544.771 949.894L543.788 948.526L544.787 949.893L543.805 948.526C542.552 949.437 541.593 950.656 540.992 952.078L544.176 953.402L540.991 952.045C540.991 952.045 536.948 961.431 528.444 971.173C524.193 976.044 518.844 981.037 512.362 985.135C505.881 989.233 498.285 992.486 489.311 994.001L490.7 1002.23L499.027 1001.77L494.198 1002.04L499.029 1001.82L499.027 1001.77L494.198 1002.04L499.029 1001.82C499.019 1001.52 498.948 999.021 499.484 995.264C500.02 991.508 501.131 986.529 503.432 981.243C505.1 977.413 503.659 972.925 500.079 970.78C496.5 968.636 491.857 969.466 489.268 972.727C484.088 979.216 477.788 985.16 470.837 990.626C460.411 998.834 448.53 1005.99 437.048 1012.62C425.566 1019.26 414.497 1025.3 405.444 1031.76L410.288 1038.55L409.996 1030.22L409.846 1030.22L410.138 1038.55L414.494 1031.44C408.168 1027.56 400.983 1023.94 393.343 1020.22C381.901 1014.65 369.451 1008.86 357.766 1002.07C346.065 995.307 335.182 987.578 326.768 978.394C323.94 975.322 319.266 974.802 315.846 977.208C312.426 979.597 311.301 984.175 313.233 987.879C315.898 992.992 317.37 997.879 318.151 1001.59C318.948 1005.3 319.052 1007.8 319.062 1008.08L319.063 1008.12L323.248 1008L319.062 1008.08L319.063 1008.12L323.248 1008L319.062 1008.08L327.401 1007.94L328.212 999.636C319.019 998.74 311.112 995.962 304.274 992.23C294.033 986.648 286.268 978.843 281.153 972.414C278.589 969.216 276.687 966.362 275.449 964.37C274.83 963.374 274.385 962.588 274.1 962.064C273.957 961.802 273.851 961.622 273.797 961.507L273.743 961.393L269.578 963.507L273.76 961.409L269.595 963.507L273.777 961.408C273.078 960.031 272.036 958.882 270.723 958.061C270.399 957.872 250.284 945.259 227.374 923.817C215.919 913.104 203.768 900.163 193.028 885.553C182.288 870.927 172.973 854.616 167.04 837.169L159.14 839.848L167.474 839.557L165.883 794.074C165.722 789.474 161.858 785.871 157.258 786.032C152.658 786.193 149.055 790.057 149.216 794.657L150.807 840.14C150.835 840.923 150.998 841.785 151.241 842.527C157.919 862.168 168.239 880.029 179.853 895.793C197.3 919.429 217.705 938.422 233.802 951.593C249.898 964.763 261.685 972.093 261.924 972.235L266.315 965.157L258.87 968.905C259.138 969.412 264.357 979.776 275.326 990.906C280.809 996.455 287.769 1002.2 296.309 1006.88C304.849 1011.55 315.004 1015.13 326.64 1016.24C329.018 1016.48 331.36 1015.7 333.105 1014.07C334.851 1012.45 335.823 1010.18 335.789 1007.8L335.779 1007.51C335.742 1006.45 335.555 1003 334.517 998.131C333.479 993.261 331.589 986.936 328.082 980.2L320.691 984.047L314.547 989.685C321.278 997.009 328.989 1003.26 337.092 1008.77C349.245 1017.02 362.292 1023.64 374.396 1029.54C386.483 1035.43 397.678 1040.63 405.831 1045.66C407.212 1046.52 408.862 1046.94 410.479 1046.89L410.629 1046.88C412.262 1046.82 413.862 1046.28 415.181 1045.34C420.374 1041.62 426.912 1037.72 434.125 1033.54C444.97 1027.29 457.363 1020.45 469.36 1012.32C481.357 1004.19 493.026 994.789 502.33 983.117L495.807 977.922L488.165 974.601C485.138 981.565 483.695 988.007 482.999 992.937C482.305 997.884 482.359 1001.34 482.395 1002.39C482.401 1002.54 482.405 1002.65 482.406 1002.7C482.54 1005.08 483.667 1007.26 485.521 1008.75C487.376 1010.24 489.767 1010.86 492.106 1010.46C503.635 1008.52 513.514 1004.23 521.708 998.992C533.997 991.087 542.558 981.092 548.117 973.055C553.677 965.018 556.249 958.904 556.402 958.498L548.714 955.279L553.589 962.034C553.881 961.807 574.259 947.093 597.173 922.379C608.622 910.014 620.717 895.141 631.224 878.27C641.731 861.399 650.664 842.48 655.656 822.048C655.847 821.29 655.921 820.57 655.894 819.787L654.398 777.004C654.237 772.404 650.373 768.801 645.773 768.962C641.173 769.123 637.57 772.986 637.731 777.586L637.647 777.573Z" fill="#49271C" style="fill:#49271C;fill:color(display-p3 0.2863 0.1529 0.1098);fill-opacity:1;"/>
<path d="M169.936 819.312C182.227 832.95 193.106 841.497 211.857 840.407C217.649 839.954 223.284 839.34 228.539 835.969C228.416 837.692 227.708 839.402 226.776 840.903C219.557 851.585 205.028 855.063 192.825 851.602C178.893 847.834 168.703 833.673 169.936 819.312Z" fill="#DB7F37" style="fill:#DB7F37;fill:color(display-p3 0.8588 0.4980 0.2157);fill-opacity:1;"/>
<path d="M251.5 805.913C255.191 814.595 259.893 822.591 267.529 827.647C281.672 836.981 301.056 835.835 315.91 828.291C323.514 824.303 330.157 818.147 333.742 808.544C336.08 819.075 330.099 830.347 321.82 836.945C294.932 859.211 246.334 845.225 251.5 805.913Z" fill="#DB7F37" style="fill:#DB7F37;fill:color(display-p3 0.8588 0.4980 0.2157);fill-opacity:1;"/>
<path d="M253.348 899.296C260.507 918.369 276.062 928.471 296.12 928.471C314.732 928.671 333.936 919.505 336.918 899.343C341.192 909.907 336.742 922.928 328.106 930.322C301.71 954.24 248.568 939.145 253.348 899.296Z" fill="#DB7F37" style="fill:#DB7F37;fill:color(display-p3 0.8588 0.4980 0.2157);fill-opacity:1;"/>
<path d="M634.217 803.074C636.451 817.313 627.291 832.151 613.64 836.884C601.709 841.172 586.956 838.735 579.025 828.583C577.989 827.134 577.164 825.494 576.921 823.784C582.399 826.779 588.064 826.998 593.872 827.046C612.654 826.823 622.909 817.536 634.217 803.074Z" fill="#DB7F37" style="fill:#DB7F37;fill:color(display-p3 0.8588 0.4980 0.2157);fill-opacity:1;"/>
<path d="M551.899 795.406C559.801 834.294 512.281 851.609 483.92 831.275C475.216 825.271 468.446 814.428 470.059 803.775C478.251 821.394 496.763 827.288 514.288 826.441C533.952 825.203 546.091 813.965 551.915 795.389L551.899 795.406Z" fill="#DB7F37" style="fill:#DB7F37;fill:color(display-p3 0.8588 0.4980 0.2157);fill-opacity:1;"/>
<path d="M556.597 888.689C562.013 913.297 540.366 932.76 516.967 934.079C499.995 935.474 480.138 927.841 473.79 910.943C471.781 905.506 471.71 899.652 473.234 894.575C477.618 914.48 497.398 922.265 515.968 920.781C535.96 919.381 550.788 908.199 556.597 888.689Z" fill="#DB7F37" style="fill:#DB7F37;fill:color(display-p3 0.8588 0.4980 0.2157);fill-opacity:1;"/>
<path d="M445.58 801.444C448.688 818.74 437.33 837.042 420.73 842.863C404.153 848.849 383.815 847.541 370.424 835.361C361.903 827.432 357.344 815.894 358.597 804.487C367.148 824.245 382.06 834.086 403.012 832.936C423.859 832.608 438.29 821.54 445.58 801.444Z" fill="#DB7F37" style="fill:#DB7F37;fill:color(display-p3 0.8588 0.4980 0.2157);fill-opacity:1;"/>
<path d="M448.882 895.845C451.99 913.14 440.632 931.443 424.032 937.263C407.454 943.25 387.117 941.942 373.725 929.761C365.205 921.833 360.646 910.295 361.899 898.887C370.45 918.646 385.362 928.487 406.314 927.337C427.161 927.008 441.592 915.94 448.882 895.845Z" fill="#DB7F37" style="fill:#DB7F37;fill:color(display-p3 0.8588 0.4980 0.2157);fill-opacity:1;"/>
<path d="M451.436 968.86C452.5 978.768 444.274 987.383 436.081 991.674C420.351 999.95 399.178 1000.51 382.864 994.47C376.701 991.932 370.771 987.935 367.18 982.12C365.388 979.062 364.042 975.421 364.436 971.903C365.606 973.865 367.096 975.414 368.644 976.745C373.874 981.235 380.689 983.332 387.412 984.232C394.157 985.298 401.514 985.224 408.35 985.085C423.903 984.14 442.464 983.324 451.403 968.861L451.436 968.86Z" fill="#DB7F37" style="fill:#DB7F37;fill:color(display-p3 0.8588 0.4980 0.2157);fill-opacity:1;"/>
<path d="M195.258 684.03C194.081 685.673 192.703 687.307 191.141 688.93C178.468 687.771 171.115 690.315 167.158 695.509C164.333 699.196 163.242 704.24 163.167 710.217C162.951 728.863 172.77 756.721 171.719 782.005C170.782 804.382 163.729 816.943 156.664 829.622C148.437 844.411 140.183 859.368 141.598 890.273C79.9599 859.855 46.5464 728.48 104.278 657.71C106.629 654.808 109.135 652.017 111.811 649.337C113.536 647.608 115.282 645.995 117.049 644.531C149.685 617.224 189.466 631.519 199.247 654.956C203.015 663.918 202.373 674.203 195.258 684.03Z" fill="#6E262C" style="fill:#6E262C;fill:color(display-p3 0.4314 0.1490 0.1725);fill-opacity:1;"/>
<path d="M204.307 666.026C203.732 672.971 200.527 679.141 196.081 684.185C194.555 685.891 192.892 687.484 191.141 688.93C192.353 687.319 193.462 685.645 194.452 683.875C197.53 678.378 199.35 672.223 198.633 666.024C198.156 661.936 196.778 658.313 194.747 655.113C188.44 645.105 175.727 639.459 164.114 638.063C159.687 636.966 154.834 637.052 150.294 637.478C149.332 637.662 147.091 637.991 146.162 638.157C137.364 639.933 129.584 644.126 122.753 649.672C118.014 653.509 113.716 657.998 109.861 662.771C108.582 664.351 107.336 665.947 106.158 667.573C74.2023 712.895 76.4709 777.277 97.6474 826.914C97.0014 811.785 99.3393 796.568 105.089 782.534C100.083 804.469 102.779 828.103 112.116 848.418C114.769 854.6 118.495 860.477 122.311 866.051C125.97 869.977 129.901 873.595 134.167 876.783C134.638 866.871 136.425 856.896 139.752 847.535C143.458 837.06 149.389 827.741 154.326 818.124C157.232 812.482 159.801 806.719 161.371 800.573C162.944 795.445 163.29 790.06 163.822 784.751C165.456 775.65 165.49 766.604 164.955 757.045C164.316 741.632 161.474 725.728 163.167 710.217C165.348 725.826 171.241 740.188 174.865 755.547C177.572 767.1 180.257 779.955 178.513 792.114C176.623 804.395 172.341 816.976 166.354 827.565C164.067 831.833 161.755 835.869 159.657 839.831C158.281 842.465 156.986 845.047 155.86 847.673C149.93 860.846 148.543 875.596 149.095 889.927C149.489 895.487 143.192 899.612 138.278 896.997C121.465 888.608 108.481 874.744 98.171 859.536C88.2502 844.497 80.9971 827.964 75.8087 810.824C62.0532 763.915 62.8606 710.188 88.3461 667.379C91.535 662.178 95.063 657.131 98.936 652.407C102.857 647.631 107.124 643.193 111.76 639.276C122.1 630.521 134.28 624.288 148.521 622.572C152.033 622.316 155.993 621.994 159.49 622.255C163.023 622.599 167.014 622.676 170.404 623.725C184.992 628.121 199.32 639.868 203.314 654.814C204.29 658.384 204.671 662.142 204.307 666.026Z" fill="#49271C" style="fill:#49271C;fill:color(display-p3 0.2863 0.1529 0.1098);fill-opacity:1;"/>
<path d="M671.278 871.746C670.503 839.1 660.213 824.942 650.494 809.947C643.086 798.542 636.013 786.675 633.683 765.847C630.867 740.698 638.699 712.223 637.198 693.637C636.675 687.28 635.075 682.08 631.548 678.566C627.155 674.164 619.768 672.403 607.805 674.357C605.962 672.702 604.368 671.023 602.989 669.302C595.526 660.118 594.257 650.084 597.345 641.032C605.342 617.29 643.098 600.4 677.21 623.887C679.553 625.507 681.868 627.312 684.175 629.317C686.584 631.419 688.897 633.624 691.096 635.9C755.102 702.045 731.016 836.883 671.278 871.746Z" fill="#6E262C" style="fill:#6E262C;fill:color(display-p3 0.4314 0.1490 0.1725);fill-opacity:1;"/>
<path d="M731.355 787.895C727.393 805.355 721.297 822.355 712.451 838.05C703.245 853.941 691.262 868.678 675.075 878.221C670.339 881.174 663.77 877.499 663.775 871.925C663.34 857.59 660.927 842.973 654.09 830.246C652.319 826.821 650.266 823.471 648.06 820.044C646.187 817.073 644.197 814.072 642.201 810.921C635.488 800.777 630.337 788.525 627.611 776.406C625.021 764.398 626.786 751.387 628.679 739.674C631.221 724.099 636.112 709.36 637.197 693.637C639.971 708.992 638.246 725.055 638.686 740.475C638.804 750.049 639.486 759.07 641.735 768.035C642.637 773.294 643.358 778.642 645.285 783.647C647.224 789.47 650.049 794.861 653.22 800.107C658.874 809.571 665.614 818.596 670.149 828.984C674.122 838.089 676.585 847.915 677.764 857.769C681.797 854.291 685.466 850.408 688.825 846.236C692.242 840.409 695.549 834.286 697.779 827.934C705.658 807.016 706.713 783.251 700.169 761.72C706.902 775.318 710.298 790.334 710.711 805.471C728.35 754.476 726.115 690.093 691.071 647.115C689.435 645.169 687.716 643.261 685.932 641.404C681.672 636.964 676.989 632.856 671.915 629.479C665.047 624.913 657.457 621.641 649.126 620.564C648.188 620.464 645.929 620.292 644.941 620.177C640.398 620.069 635.551 620.322 631.195 621.726C619.708 623.93 607.421 630.45 601.828 640.875C600.026 644.208 598.92 647.918 598.731 652.03C598.442 658.081 600.548 663.931 603.849 669.072C605.032 670.933 606.379 672.705 607.805 674.357C605.786 672.926 603.877 671.307 602.129 669.532C597.545 664.887 594.089 659.101 593.054 652.429C592.436 648.579 592.537 644.804 593.261 641.174C596.218 625.986 609.674 613.284 623.918 607.863C627.244 606.578 631.22 606.222 634.703 605.633C638.19 605.128 642.163 605.172 645.668 605.183C659.375 605.872 671.496 610.804 682.068 618.244C687.046 621.724 691.676 625.768 695.969 630.173C700.659 634.982 704.947 640.222 708.842 645.675C737.257 686.599 741.816 740.139 731.355 787.895Z" fill="#49271C" style="fill:#49271C;fill:color(display-p3 0.2863 0.1529 0.1098);fill-opacity:1;"/>
<path d="M741.363 116.412L375.991 6.65063C375.07 6.36409 374.117 6.22811 373.15 6.24246C372.416 6.25335 371.667 6.36453 370.953 6.54192L370.886 6.54291L370.338 6.7345L8.39992 127.287C4.58249 128.544 2.03439 132.168 2.12736 136.186C2.22034 140.204 4.9241 143.7 8.77665 144.81L180.04 193.673L181.739 308.18C181.79 311.581 183.72 314.672 186.745 316.211C187.098 316.39 208.693 327.361 243.344 338.155C277.979 348.932 325.687 359.549 378.33 358.801L378.447 358.8C431.089 357.985 478.462 345.958 512.761 334.157C547.077 322.34 568.337 310.733 568.685 310.545C571.663 308.916 573.501 305.77 573.45 302.368L571.751 187.861L741.507 133.939C745.325 132.715 747.924 129.141 747.897 125.122C747.871 121.103 745.217 117.556 741.363 116.412ZM555.023 296.954C547.076 300.892 529.75 308.954 506.02 317.078C473.064 328.359 427.783 339.721 378.175 340.457L378.058 340.459C328.067 341.201 282.133 331.024 248.789 320.645C232.116 315.455 218.612 310.218 209.298 306.303C205.454 304.676 202.331 303.288 199.997 302.221L198.381 193.301L375.069 134.439L553.407 188.034L555.023 296.954ZM562.403 171.572L378.318 116.261C377.261 115.843 376.124 115.643 374.99 115.644C374.723 115.631 374.456 115.651 374.19 115.672L374.056 115.674C373.157 115.754 372.293 115.967 371.447 116.297L188.901 177.113L42.3598 135.306L373.445 25.0349L707.656 125.435L562.403 171.572Z" fill="#49271C" style="fill:#49271C;fill:color(display-p3 0.2863 0.1529 0.1098);fill-opacity:1;"/>
<path d="M553.407 188.034L555.023 296.955C547.076 300.892 529.75 308.955 506.02 317.079C473.063 328.359 427.799 339.721 378.208 340.457L378.058 340.459C328.067 341.201 282.133 331.025 248.788 320.645C232.116 315.455 218.612 310.218 209.298 306.304C205.454 304.676 202.331 303.288 199.997 302.222L198.381 193.301L226.064 184.084L375.068 134.44L553.407 188.034Z" fill="#74272E" style="fill:#74272E;fill:color(display-p3 0.4549 0.1529 0.1804);fill-opacity:1;"/>
<path d="M553.407 188.034L555.023 296.955C547.076 300.892 529.75 308.955 506.02 317.079C473.064 328.359 427.8 339.721 378.208 340.457L377.615 300.487L375.068 134.439L553.407 188.034Z" fill="#55242A" style="fill:#55242A;fill:color(display-p3 0.3333 0.1412 0.1647);fill-opacity:1;"/>
<path d="M707.656 125.435L612.271 155.737L562.403 171.571L378.318 116.261C377.261 115.843 376.124 115.643 374.99 115.643C374.723 115.63 374.456 115.651 374.19 115.672L374.056 115.674C373.157 115.754 372.293 115.967 371.447 116.296L188.901 177.113L138.753 162.813L42.3597 135.305L373.445 25.0345L707.656 125.435Z" fill="#73262D" style="fill:#73262D;fill:color(display-p3 0.4510 0.1490 0.1765);fill-opacity:1;"/>
<path d="M612.271 155.738L562.403 171.572L378.318 116.261C377.261 115.843 376.124 115.643 374.99 115.644C374.723 115.631 374.456 115.651 374.189 115.672L374.056 115.674C373.157 115.754 372.292 115.967 371.447 116.297L188.901 177.113L138.753 162.813L374.749 84.8417L612.271 155.738Z" fill="#50281E" style="fill:#50281E;fill:color(display-p3 0.3137 0.1569 0.1176);fill-opacity:1;"/>
<path d="M373.445 25.0353L374.332 84.8483L126.205 107.376L373.445 25.0353Z" fill="#AD423C" style="fill:#AD423C;fill:color(display-p3 0.6784 0.2588 0.2353);fill-opacity:1;"/>
<path d="M377.615 300.487L226.064 184.084L375.068 134.439L375.085 134.439L377.615 300.487Z" fill="#AC413B" style="fill:#AC413B;fill:color(display-p3 0.6745 0.2549 0.2314);fill-opacity:1;"/>
<path d="M374.333 84.8482L612.271 155.738L707.656 125.436L373.445 25.0352L374.333 84.8482Z" fill="#70262D" style="fill:#70262D;fill:color(display-p3 0.4392 0.1490 0.1765);fill-opacity:1;"/>
<path d="M792.579 394.903C790.002 393.256 787.618 391.057 785.426 388.337C781.586 383.591 778.374 377.301 775.905 370.499C772.168 360.314 770.033 349.087 768.888 340.498C768.495 337.569 768.222 334.954 768.023 332.772C774.146 328.395 778.268 319.544 778.117 309.356C777.966 299.167 773.514 290.31 767.215 286.167L764.911 130.857C764.859 127.389 762.645 124.286 759.359 123.117L740.362 116.361C736.019 114.824 731.249 117.08 729.712 121.422C728.176 125.765 730.431 130.535 734.774 132.071L748.322 136.874L750.54 286.398C744.35 290.743 740.179 299.645 740.331 309.9C740.492 320.738 745.432 329.955 752.31 333.772C752.154 334.509 751.999 335.278 751.844 336.081C750.665 338.65 746.774 347.331 742.869 358.43C740.549 365.036 738.241 372.475 736.502 380.057C734.78 387.638 733.609 395.31 733.7 402.548C733.759 406.516 734.2 410.379 735.271 414.033C736.308 417.57 740.007 419.6 743.545 418.58C747.082 417.543 749.112 413.844 748.092 410.306C747.459 408.148 747.102 405.434 747.056 402.349C746.976 396.913 747.88 390.395 749.366 383.752C749.985 388.396 750.937 392.985 752.387 397.4C753.767 401.599 755.595 405.659 758.019 409.392C760.442 413.109 763.462 416.516 767.139 419.314C770.074 421.539 774.252 420.976 776.494 418.041C778.718 415.106 778.156 410.928 775.221 408.686C772.859 406.887 770.892 404.698 769.202 402.121C766.676 398.239 764.837 393.446 763.64 388.077C762.443 382.724 761.889 376.845 761.801 370.925C761.799 370.758 761.796 370.592 761.794 370.425C763.351 375.305 765.224 380.181 767.545 384.817C769.659 389.038 772.12 393.055 775.059 396.697C777.999 400.323 781.416 403.574 785.423 406.133C788.522 408.122 792.661 407.193 794.633 404.095C796.622 400.98 795.693 396.858 792.595 394.886L792.579 394.903Z" fill="#49271C" style="fill:#49271C;fill:color(display-p3 0.2863 0.1529 0.1098);fill-opacity:1;"/>
<path d="M715.169 439.631C705.136 409.742 690.117 384.463 677.609 366.552C670.929 356.995 664.964 349.544 660.805 344.636C671.365 336.94 680.608 328.147 687.913 317.965C697.456 304.697 703.612 289.045 705.048 271.161C705.301 268.021 703.59 265.078 700.718 263.753C697.863 262.411 694.519 263.011 692.284 265.229L692.267 265.229L692.234 265.263C696.357 254.194 699.628 239.769 699.367 222.176C699.226 212.638 698.053 202.182 695.467 190.862C694.736 187.704 692.083 185.375 688.86 185.072C685.636 184.753 682.594 186.533 681.287 189.504C671.813 210.877 658.829 229.433 639.129 245.003C626.782 254.759 611.715 263.355 593.075 270.537C564.195 255.271 531.15 249.373 498.601 249.856C475.139 250.204 451.893 253.851 430.45 259.84C410.983 265.266 393.046 272.637 377.73 281.304C362.164 273.096 344.016 266.26 324.397 261.414C302.786 256.064 279.442 253.108 255.98 253.456C223.397 253.939 190.526 260.815 162.095 276.964C143.216 270.323 127.868 262.178 115.219 252.775C95.0495 237.797 81.5372 219.634 71.4341 198.552C70.0396 195.621 66.9457 193.932 63.7329 194.347C60.5031 194.745 57.937 197.151 57.3003 200.33C55.0509 211.721 54.1891 222.208 54.3306 231.746C54.5916 249.338 58.2732 263.661 62.7386 274.602L62.6881 274.57C61.2336 273.207 59.3553 272.518 57.4544 272.546C56.3538 272.562 55.2401 272.812 54.1972 273.345C51.3828 274.754 49.7593 277.747 50.106 280.878C52.0718 298.711 58.6891 314.174 68.622 327.153C76.0551 336.9 85.3027 345.285 95.8011 352.535C96.037 352.698 96.3063 352.861 96.5591 353.041C92.4987 358.154 86.9547 365.575 80.8544 374.839C68.6374 393.4 54.1456 419.384 44.9867 449.574C37.5935 474.001 33.9262 499.991 34.3109 525.921C34.8418 561.705 43.0934 597.391 60.2158 628.427C67.0713 640.834 75.3669 652.502 85.1472 663.065C86.8424 664.908 88.5871 666.717 90.3812 668.475C91.1432 669.247 91.9213 669.986 92.7164 670.742C93.7485 671.727 94.7969 672.696 95.8618 673.647C103.926 680.949 112.847 687.555 122.606 693.348C127.873 696.489 133.387 699.393 139.13 702.026C143.631 704.094 148.094 705.913 152.488 707.532C174.842 715.74 195.881 718.446 215.34 718.141C237.334 717.798 257.356 713.765 275.511 709.893C293.666 706.004 310.007 702.343 324.432 702.162C329.351 702.089 334.059 702.403 338.574 703.187C345.363 704.37 351.733 706.594 358.094 710.352C364.168 713.965 370.231 719.029 376.375 726.159C378.082 728.819 381.042 730.46 384.243 730.412L384.393 730.41C387.612 730.362 390.521 728.618 392.132 725.892C400.142 716.05 408.074 709.961 416.206 706.138C420.43 704.14 424.729 702.759 429.235 701.841C433.725 700.924 438.405 700.471 443.324 700.398C457.747 700.151 474.189 703.326 492.469 706.674C510.731 710.006 530.847 713.443 552.858 713.133C572.835 712.854 594.365 709.349 617.125 699.938C620.888 698.381 624.698 696.657 628.54 694.765C638.954 689.624 648.506 683.628 657.212 676.91C662.539 672.845 667.545 668.485 672.246 663.878C672.838 663.302 673.43 662.71 674.022 662.117C675.205 660.916 676.371 659.714 677.52 658.479C679.227 656.636 680.917 654.76 682.507 652.852C697.311 635.536 708.274 615.643 715.732 594.467C724.55 569.385 728.503 542.474 728.105 515.627C727.707 488.781 723.284 463.828 715.169 439.631ZM256.252 271.798C277.98 271.476 299.853 274.237 319.991 279.208C340.13 284.197 358.549 291.396 373.368 299.799C376.244 301.424 379.813 301.371 382.639 299.661C397.202 290.822 415.4 283.08 435.382 277.497C455.364 271.93 477.145 268.521 498.873 268.199C522.401 267.833 545.833 271.138 567.064 278.962C563.377 279.967 559.622 280.924 555.716 281.849C536.601 286.302 515.611 291.317 494.851 298.413C479.269 303.748 463.787 310.232 449.301 318.603C438.42 324.869 428.104 332.21 418.76 340.888C404.742 353.889 392.939 369.959 384.827 389.776C382.783 394.777 380.976 400.008 379.422 405.468C376.448 396.072 372.733 387.421 368.379 379.463C359.533 363.316 348.046 350.127 335.01 339.329C315.406 323.141 292.346 312.325 268.845 304.418C245.344 296.511 221.336 291.497 199.689 287.131C195.791 286.338 192.026 285.493 188.36 284.614C209.35 276.13 232.69 272.131 256.252 271.798ZM395.16 534.277C402.352 542.393 410.432 551.863 417.976 560.14C421.757 564.287 425.4 568.119 428.784 571.388C430.865 573.375 432.826 575.114 434.716 576.637C433.134 582.415 429.478 594.528 423.038 609.05C415.341 626.443 403.657 647.232 387.07 664.64C385.871 665.909 384.639 667.144 383.389 668.364C382.104 667.182 380.835 665.967 379.6 664.751C362.199 647.53 349.764 626.666 341.567 609.308C336.867 599.404 333.535 590.647 331.391 584.408C330.536 581.902 329.872 579.827 329.381 578.217C330.501 577.266 331.653 576.215 332.837 575.063C337.062 570.981 341.755 565.741 346.656 559.998C354.001 551.399 361.779 541.677 368.646 533.519C372.072 529.432 375.269 525.732 378.011 522.806C379.176 521.555 380.228 520.488 381.198 519.54C381.621 519.934 382.078 520.361 382.534 520.804C385.969 524.106 390.377 528.894 395.16 534.277ZM688.933 610.459C683.389 621.249 676.701 631.372 668.849 640.645C667.243 642.537 665.586 644.38 663.878 646.19C662.943 647.204 661.974 648.219 660.987 649.201C660.166 650.031 659.327 650.86 658.472 651.674C655.184 654.841 651.726 657.878 648.083 660.768C639.792 667.395 630.589 673.286 620.423 678.307C609.777 683.568 599.525 687.306 589.623 689.888C589.34 689.959 589.041 690.03 588.759 690.101C588.476 690.172 588.177 690.243 587.895 690.314C575.664 693.348 563.958 694.606 552.586 694.791C532.692 695.086 513.865 691.93 495.754 688.629C477.642 685.345 460.261 681.834 443.052 682.056C431.346 682.23 419.634 684.238 408.404 689.525C399.841 693.555 391.673 699.447 383.969 707.433C376.048 699.678 367.709 694.031 359.03 690.257C353.339 687.79 347.544 686.125 341.708 685.11C335.889 684.096 330.029 683.733 324.159 683.82C306.951 684.108 289.699 688.134 271.692 691.953C253.686 695.79 234.961 699.503 215.068 699.798C204.313 699.941 193.209 699.139 181.633 696.792C181.365 696.746 181.081 696.684 180.813 696.621C180.546 696.575 180.278 696.512 180.01 696.449C169.369 694.189 158.341 690.616 146.771 685.334C137.938 681.279 129.78 676.58 122.279 671.287C117.611 668.021 113.189 664.517 109.014 660.81C107.764 659.711 106.546 658.578 105.345 657.445C104.685 656.821 104.042 656.197 103.416 655.556C101.622 653.814 99.9107 652.022 98.2324 650.195C84.2635 634.975 73.625 617.153 66.1319 597.75C57.4247 575.196 53.0222 550.511 52.6533 525.648C52.2845 500.786 55.7079 477.469 62.5446 454.884C70.9548 427.056 84.6164 402.453 96.165 384.936C101.939 376.177 107.189 369.178 110.955 364.402C111.478 363.744 111.953 363.136 112.412 362.562C124.062 368.777 136.716 374.027 150.008 378.5C169.905 385.193 191.178 390.198 212.385 394.153C216.449 394.91 220.379 392.216 221.135 388.135C221.892 384.071 219.199 380.158 215.135 379.385C196.704 375.956 178.361 371.724 161.169 366.342C143.994 360.96 127.985 354.426 114.224 346.441C100.446 338.456 88.9483 329.07 80.5456 318.053C75.6124 311.555 71.7384 304.507 69.0214 296.742C72.6028 298.69 76.7863 300.746 81.5696 302.76C84.8927 304.162 88.7614 302.987 90.7517 299.989C92.7254 296.991 92.2994 293.011 89.7436 290.497L89.727 290.497C89.5236 290.283 84.545 285.22 79.5792 275.403C74.6135 265.587 69.6275 251.033 69.338 231.524C69.3093 229.589 69.3302 227.621 69.4003 225.602C78.9234 240.188 90.895 253.436 106.275 264.833C128.587 281.398 157.844 293.99 196.705 301.836C215.876 305.704 236.488 310.019 256.561 316.225C271.624 320.872 286.37 326.591 299.971 333.928C310.177 339.43 319.729 345.827 328.347 353.371C341.257 364.688 352.07 378.537 359.835 396.035C367.6 413.532 372.334 434.727 372.738 460.79L373.479 510.765C372.854 511.374 372.213 511.984 371.556 512.661C367.777 516.503 363.399 521.572 358.696 527.212C351.649 535.639 343.87 545.328 336.755 553.606C333.197 557.745 329.817 561.532 326.81 564.595C323.82 567.658 321.153 570.016 319.436 571.159C317.355 572.541 316.391 575.057 317.028 577.466C317.081 577.715 321.186 593.549 331.017 614.318C338.421 629.92 349.068 648.342 363.809 664.985C368.406 670.187 373.417 675.2 378.841 679.923C379.946 681.341 381.66 682.216 383.528 682.188L383.678 682.186C385.545 682.158 387.233 681.233 388.296 679.783C393.577 674.901 398.421 669.742 402.861 664.406C417.118 647.332 427.215 628.602 434.152 612.788C443.363 591.737 446.979 575.788 447.042 575.537C447.59 573.111 446.552 570.624 444.448 569.304C443.118 568.474 441.194 566.951 439.013 564.965C435.175 561.486 430.499 556.569 425.548 551.122C418.121 542.926 410.075 533.472 402.85 525.373C399.237 521.307 395.83 517.588 392.765 514.481C391.258 512.969 389.837 511.606 388.485 510.409L387.745 460.567C387.287 429.685 393.132 405.448 403.067 385.97C410.539 371.382 420.335 359.395 431.811 349.318C449.016 334.218 470.071 323.448 492.266 315.264C514.443 307.062 537.693 301.447 559.118 296.459C597.746 287.463 626.617 274.009 648.427 256.79C663.446 244.942 675.036 231.344 684.122 216.482C684.235 218.498 684.331 220.465 684.36 222.399C684.642 242.543 679.794 257.542 674.972 267.504C672.561 272.493 670.147 276.198 668.382 278.61C667.516 279.823 666.795 280.701 666.32 281.259C666.09 281.529 665.91 281.732 665.811 281.833L665.712 281.935C664.3 283.424 663.595 285.335 663.623 287.27C663.645 288.737 664.101 290.198 664.987 291.469C667.065 294.407 670.967 295.467 674.23 293.967C678.968 291.812 683.089 289.633 686.611 287.579C684.109 295.422 680.462 302.581 675.724 309.223C669.662 317.669 661.852 325.256 652.596 332.049C638.738 342.261 621.667 350.687 602.873 357.621C584.096 364.571 563.629 370.045 543.014 374.52C538.958 375.414 536.398 379.405 537.276 383.445C538.153 387.502 542.161 390.077 546.201 389.2C563.773 385.37 581.385 380.823 598.164 375.203C614.942 369.567 630.92 362.842 645.243 354.657C649.095 359.103 655.532 366.947 662.843 377.446C674.602 394.334 688.598 418.093 697.776 445.46C705.28 467.831 709.406 491.887 709.763 515.899C710.255 549.066 703.539 582.072 688.933 610.459Z" fill="#4C281A" style="fill:#4C281A;fill:color(display-p3 0.2980 0.1569 0.1020);fill-opacity:1;"/>
<path d="M567.065 278.962C563.377 279.967 559.622 280.923 555.716 281.849C536.602 286.302 515.611 291.317 494.851 298.413C479.269 303.748 463.788 310.232 449.301 318.603C438.42 324.868 428.105 332.21 418.76 340.888C404.743 353.889 392.939 369.958 384.827 389.776C382.783 394.777 380.976 400.007 379.423 405.467C376.448 396.072 372.734 387.42 368.379 379.463C359.533 363.315 348.046 350.126 335.01 339.329C315.406 323.141 292.346 312.325 268.845 304.418C245.345 296.511 221.336 291.496 199.689 287.131C195.792 286.338 192.026 285.493 188.361 284.614C209.35 276.13 232.691 272.131 256.253 271.798C277.98 271.475 299.853 274.237 319.992 279.208C340.13 284.197 358.55 291.395 373.368 299.798C376.244 301.423 379.813 301.37 382.64 299.661C397.202 290.822 415.401 283.08 435.382 277.496C455.364 271.929 477.146 268.521 498.873 268.198C522.401 267.833 545.834 271.137 567.065 278.962Z" fill="#70242E" style="fill:#70242E;fill:color(display-p3 0.4392 0.1412 0.1804);fill-opacity:1;"/>
<path d="M372.737 460.79L373.479 510.764C372.854 511.374 372.212 511.984 371.555 512.661C367.776 516.503 363.398 521.572 358.695 527.212C353.107 533.883 347.08 541.361 341.262 548.286C349.716 531.298 355.551 510.88 354.318 490.718C351.922 451.775 325.049 413.279 277.146 395.16C263.308 389.928 248.563 387.578 233.767 387.464C230.214 387.433 226.009 387.279 221.249 386.849C221.313 383.279 218.764 380.081 215.134 379.385C196.703 375.955 178.361 371.724 161.169 366.342C143.993 360.959 127.985 354.425 114.223 346.44C100.445 338.456 88.9478 329.069 80.5452 318.053C75.6119 311.555 71.738 304.507 69.0209 296.742C72.6024 298.69 76.7859 300.746 81.5692 302.76C84.8923 304.162 88.761 302.987 90.7513 299.988C92.7249 296.99 92.299 293.011 89.7432 290.497L89.7265 290.497C89.5232 290.283 84.5446 285.22 79.5788 275.403C74.6131 265.586 69.6271 251.033 69.3376 231.524C69.3089 229.589 69.3298 227.621 69.3999 225.602C78.9229 240.188 90.8946 253.436 106.275 264.833C128.586 281.398 157.844 293.99 196.705 301.836C215.876 305.704 236.488 310.018 256.561 316.225C271.624 320.872 286.369 326.591 299.971 333.928C310.177 339.43 319.728 345.827 328.346 353.371C341.257 364.688 352.07 378.537 359.835 396.035C367.6 413.532 372.334 434.727 372.737 460.79Z" fill="#D78137" style="fill:#D78137;fill:color(display-p3 0.8431 0.5059 0.2157);fill-opacity:1;"/>
<path d="M686.611 287.579C684.109 295.422 680.462 302.581 675.724 309.223C669.661 317.669 661.852 325.256 652.596 332.049C638.737 342.261 621.667 350.687 602.873 357.621C584.095 364.571 563.629 370.045 543.014 374.52C539.173 375.361 536.675 378.984 537.165 382.796C533.687 383.332 530.055 383.552 526.653 383.603C507.527 383.92 488.609 388.07 471.541 396.679C430.551 417.352 408.342 453.774 407.194 489.933C406.543 510.124 412.998 530.359 421.935 547.089C415.558 539.928 408.921 532.171 402.85 525.373C399.237 521.307 395.829 517.588 392.764 514.481C391.257 512.969 389.836 511.606 388.484 510.409L387.745 460.567C387.287 429.685 393.131 405.448 403.066 385.97C410.539 371.382 420.335 359.395 431.81 349.318C449.015 334.218 470.071 323.448 492.265 315.264C514.443 307.062 537.693 301.447 559.118 296.459C597.745 287.463 626.617 274.009 648.427 256.79C663.445 244.942 675.035 231.344 684.122 216.482C684.235 218.498 684.331 220.465 684.36 222.399C684.642 242.543 679.794 257.542 674.972 267.504C672.56 272.493 670.147 276.198 668.381 278.61C667.515 279.823 666.795 280.701 666.319 281.259C666.09 281.529 665.909 281.732 665.811 281.833L665.712 281.935C664.3 283.424 663.594 285.335 663.623 287.27C663.645 288.737 664.1 290.198 664.986 291.469C667.065 294.407 670.966 295.467 674.23 293.967C678.968 291.812 683.089 289.633 686.611 287.579Z" fill="#D78137" style="fill:#D78137;fill:color(display-p3 0.8431 0.5059 0.2157);fill-opacity:1;"/>
<path d="M709.762 515.899C710.254 549.066 703.539 582.072 688.933 610.459C681.621 624.661 672.359 637.741 660.987 649.201C649.632 660.661 636.185 670.517 620.423 678.307C595.951 690.378 573.662 694.461 552.585 694.791C532.692 695.086 513.865 691.93 495.753 688.629C477.642 685.345 460.26 681.834 443.051 682.056C431.346 682.229 419.634 684.238 408.404 689.525C399.841 693.554 391.672 699.446 383.969 707.433C376.048 699.678 367.708 694.031 359.029 690.257C353.339 687.79 347.543 686.124 341.707 685.11C335.888 684.096 330.029 683.732 324.159 683.82C306.951 684.108 289.698 688.134 271.692 691.953C253.686 695.79 234.961 699.503 215.068 699.798C193.974 700.095 171.574 696.674 146.771 685.334C130.785 678.016 117.051 668.562 105.345 657.445C87.8181 640.759 74.8391 620.32 66.1316 597.75C57.4243 575.196 53.0218 550.51 52.653 525.648C52.2841 500.786 55.7075 477.468 62.5443 454.884C70.9544 427.056 84.6161 402.453 96.1646 384.936C101.939 376.177 107.189 369.178 110.954 364.402C111.478 363.743 111.953 363.136 112.411 362.562C117.438 365.239 122.662 367.747 128.05 370.069C129.595 370.763 131.173 371.424 132.75 372.067C134.11 372.648 135.485 373.194 136.861 373.724C138.924 374.528 141.004 375.314 143.117 376.083C144.492 376.597 145.884 377.076 147.275 377.556C148.181 377.876 149.086 378.196 150.008 378.499C169.905 385.193 191.177 390.197 212.385 394.153C216.449 394.909 220.378 392.216 221.135 388.135C221.165 387.918 221.195 387.701 221.225 387.483C221.239 387.266 221.252 387.066 221.249 386.849C226.009 387.279 230.214 387.433 233.767 387.464C248.563 387.578 263.308 389.928 277.146 395.16C325.049 413.279 351.922 451.775 354.318 490.717C355.551 510.88 349.716 531.298 341.262 548.286C340.508 549.197 339.738 550.093 338.984 550.988C338.246 551.866 337.492 552.745 336.754 553.606C333.196 557.745 329.817 561.531 326.81 564.595C323.82 567.658 321.153 570.016 319.435 571.159C317.354 572.541 316.391 575.057 317.027 577.466C317.045 577.549 317.47 579.194 318.346 582.066C318.504 582.598 318.696 583.162 318.888 583.759C319.746 586.465 320.915 589.934 322.426 593.998C322.565 594.346 322.687 594.711 322.842 595.075C323.017 595.573 323.224 596.087 323.432 596.618C324.543 599.537 325.841 602.703 327.292 606.067C327.655 606.946 328.052 607.841 328.466 608.752C328.863 609.647 329.277 610.575 329.708 611.502C330.122 612.43 330.569 613.374 331.017 614.318C331.275 614.881 331.55 615.428 331.826 616.007C341.565 636.144 356.639 660.638 378.84 679.923C379.946 681.341 381.66 682.216 383.527 682.188L383.677 682.186C385.545 682.158 387.233 681.233 388.295 679.782C409.915 659.848 424.256 634.917 433.393 614.5C433.651 613.913 433.91 613.359 434.151 612.788C434.442 612.133 434.732 611.478 435.006 610.824C435.28 610.186 435.554 609.531 435.812 608.911C436.263 607.853 436.682 606.829 437.083 605.806C437.421 604.967 437.759 604.145 438.064 603.34C438.547 602.132 438.996 600.958 439.413 599.817C439.798 598.778 440.166 597.771 440.536 596.798C441.112 595.205 441.64 593.68 442.136 592.222C442.343 591.585 442.551 590.964 442.758 590.361C443.221 588.936 443.651 587.596 444.033 586.356C444.542 584.697 444.987 583.189 445.368 581.883C445.542 581.28 445.701 580.694 445.843 580.175C445.938 579.84 446.033 579.521 446.112 579.22C446.128 579.136 446.16 579.052 446.175 578.969C446.238 578.718 446.301 578.467 446.365 578.232C446.523 577.663 446.649 577.16 446.743 576.759C446.806 576.491 446.869 576.257 446.916 576.072C446.916 576.039 446.915 576.022 446.932 576.005C446.948 575.955 446.947 575.922 446.963 575.872C447.01 575.671 447.042 575.553 447.042 575.537C447.589 573.11 446.552 570.624 444.447 569.304C443.117 568.473 441.194 566.951 439.013 564.965C435.175 561.486 430.499 556.569 425.548 551.121C424.361 549.821 423.191 548.504 421.969 547.138C421.969 547.138 421.952 547.105 421.952 547.088C413.014 530.359 406.56 510.123 407.211 489.933C408.359 453.773 430.568 417.351 471.558 396.679C488.625 388.069 507.544 383.919 526.67 383.602C530.072 383.552 533.704 383.331 537.182 382.796C537.202 383.012 537.239 383.229 537.292 383.445C538.169 387.501 542.177 390.077 546.217 389.2C563.789 385.37 581.401 380.822 598.18 375.203C602.445 373.772 606.659 372.258 610.805 370.679C612.845 369.898 614.852 369.118 616.858 368.304C617.869 367.889 618.88 367.474 619.875 367.059C620.455 366.816 621.018 366.575 621.582 366.316C621.83 366.229 622.062 366.125 622.311 366.005C623.272 365.607 624.233 365.193 625.178 364.762C626.736 364.088 628.276 363.381 629.816 362.641C635.133 360.161 640.298 357.499 645.259 354.657C649.111 359.103 655.549 366.946 662.859 377.445C674.618 394.333 688.614 418.093 697.793 445.46C705.296 467.831 709.423 491.887 709.779 515.899L709.762 515.899Z" fill="#DB7F37" style="fill:#DB7F37;fill:color(display-p3 0.8588 0.4980 0.2157);fill-opacity:1;"/>
<path d="M331.826 616.007C315.234 630.814 254.592 677.046 176.448 642.98C78.0414 600.075 59.4002 475.662 128.051 370.069C134.262 372.795 140.687 375.285 147.275 377.556C86.432 469.757 102.362 578.916 188.43 616.45C254.706 645.338 306.52 607.81 322.426 593.997C324.58 599.753 327.418 606.716 331.017 614.318C331.276 614.881 331.551 615.427 331.826 616.007Z" fill="#DBAB85" style="fill:#DBAB85;fill:color(display-p3 0.8588 0.6706 0.5216);fill-opacity:1;"/>
<path d="M589.503 636.852C512.403 673.221 450.417 628.808 433.393 614.501C433.651 613.913 433.91 613.359 434.151 612.788C437.539 605.082 440.154 598.038 442.135 592.222C458.445 605.556 511.349 641.531 576.739 610.689C661.656 570.618 674.34 461.035 610.788 370.679C617.306 368.197 623.655 365.535 629.799 362.642C701.519 466.152 686.593 591.063 589.503 636.852Z" fill="#DBAB85" style="fill:#DBAB85;fill:color(display-p3 0.8588 0.6706 0.5216);fill-opacity:1;"/>
<path d="M576.74 610.689C511.35 641.531 458.446 605.556 442.136 592.222C442.344 591.585 442.551 590.965 442.759 590.361C443.222 588.936 443.652 587.596 444.034 586.356C444.56 584.697 444.988 583.19 445.369 581.883C445.543 581.28 445.701 580.694 445.844 580.175C445.939 579.84 446.034 579.521 446.113 579.22C446.129 579.136 446.161 579.053 446.176 578.969C446.239 578.718 446.302 578.467 446.365 578.232C446.524 577.663 446.65 577.161 446.744 576.759C446.806 576.491 446.87 576.257 446.917 576.072C446.916 576.039 446.916 576.022 446.933 576.006C446.949 575.955 446.948 575.922 446.964 575.872C447.011 575.671 447.043 575.554 447.042 575.537C447.59 573.11 446.553 570.624 444.448 569.304C443.118 568.473 441.194 566.951 439.013 564.965C435.176 561.486 430.499 556.569 425.548 551.121C424.362 549.821 423.191 548.504 421.97 547.138C421.97 547.138 421.953 547.105 421.953 547.088C413.015 530.359 406.56 510.124 407.212 489.933C408.36 453.773 430.569 417.351 471.558 396.679C488.626 388.069 507.545 383.919 526.671 383.602C530.072 383.552 533.705 383.331 537.183 382.796C537.203 383.012 537.239 383.229 537.293 383.445C538.17 387.501 542.178 390.077 546.218 389.2C563.79 385.37 581.402 380.822 598.181 375.203C602.446 373.772 606.66 372.258 610.806 370.679C674.358 461.035 661.673 570.618 576.757 610.689L576.74 610.689Z" fill="#E7C8A6" style="fill:#E7C8A6;fill:color(display-p3 0.9059 0.7843 0.6510);fill-opacity:1;"/>
<path d="M341.263 548.286C340.509 549.197 339.738 550.093 338.984 550.988C338.247 551.866 337.493 552.745 336.755 553.606C333.197 557.745 329.817 561.531 326.811 564.595C323.821 567.658 321.154 570.016 319.436 571.159C317.355 572.541 316.392 575.057 317.028 577.466C317.046 577.549 317.471 579.194 318.347 582.066C318.505 582.598 318.697 583.162 318.889 583.759C319.747 586.465 320.916 589.934 322.427 593.998C306.52 607.81 254.706 645.338 188.43 616.45C102.362 578.916 86.4326 469.757 147.276 377.556C148.181 377.876 149.087 378.196 150.009 378.499C169.905 385.193 191.178 390.197 212.385 394.153C216.449 394.91 220.379 392.216 221.136 388.135C221.166 387.918 221.196 387.701 221.226 387.483C221.24 387.266 221.253 387.066 221.25 386.849C226.01 387.279 230.215 387.433 233.768 387.464C248.564 387.578 263.309 389.928 277.147 395.16C325.05 413.279 351.923 451.775 354.319 490.717C355.552 510.88 349.717 531.298 341.263 548.286Z" fill="#E7C8A6" style="fill:#E7C8A6;fill:color(display-p3 0.9059 0.7843 0.6510);fill-opacity:1;"/>
<path d="M433.966 576.648C432.384 582.426 428.727 594.538 422.288 609.061C414.042 627.713 401.2 650.253 382.639 668.375C363.244 650.516 349.599 627.902 340.817 609.319C336.117 599.415 332.784 590.658 330.64 584.419C329.786 581.913 329.121 579.838 328.63 578.227C329.75 577.277 330.902 576.226 332.086 575.074C336.312 570.992 341.004 565.752 345.906 560.008C353.25 551.41 361.029 541.688 367.896 533.53C371.321 529.443 374.519 525.743 377.26 522.817C378.426 521.565 379.478 520.499 380.448 519.551C380.87 519.945 381.327 520.371 381.784 520.815C385.219 524.116 389.626 528.905 394.409 534.287C401.602 542.403 409.681 551.874 417.226 560.151C421.007 564.298 424.649 568.13 428.034 571.399C430.115 573.386 432.075 575.125 433.966 576.648Z" fill="#DB7947" style="fill:#DB7947;fill:color(display-p3 0.8588 0.4745 0.2784);fill-opacity:1;"/>
<path d="M422.558 579.986C420.616 586.236 417.561 595.037 413.139 605.01C407.071 618.726 397.06 637.588 382.428 654.1C367.058 637.767 356.386 618.828 349.861 605.048C345.212 595.26 342 586.685 340.117 581.209C343.832 577.535 348.132 572.817 353.525 566.5C357.738 561.567 362.08 556.282 366.29 551.166C369.141 547.688 371.942 544.277 374.614 541.085C374.925 540.714 375.236 540.342 375.548 539.971C377.449 537.708 379.137 535.731 380.646 534.008C381.68 535.11 382.782 536.311 383.969 537.628L383.969 537.661C384.935 538.681 385.902 539.784 386.937 540.936C389.549 543.899 392.298 547.044 395.097 550.255C399.967 555.82 404.989 561.583 409.838 566.898C414.128 571.605 417.804 575.436 421.086 578.59C421.577 579.083 422.084 579.543 422.558 579.986Z" fill="#F39C52" style="fill:#F39C52;fill:color(display-p3 0.9529 0.6118 0.3216);fill-opacity:1;"/>
<path d="M381.637 595.253C381.637 595.253 378.594 564.376 373.412 556.831C370.974 553.265 372.413 546.855 374.612 541.085C374.924 540.714 375.235 540.342 375.547 539.971C377.448 537.708 379.136 535.731 380.645 534.008C381.679 535.11 382.781 536.311 383.968 537.628L383.968 537.661C383.968 537.661 391.58 563.967 381.637 595.253Z" fill="#EDC3A0" style="fill:#EDC3A0;fill:color(display-p3 0.9294 0.7647 0.6275);fill-opacity:1;"/>
<path d="M500.296 527.146C527.353 526.744 548.962 504.485 548.56 477.428C548.159 450.371 525.899 428.762 498.843 429.164C471.786 429.565 450.177 451.825 450.578 478.882C450.98 505.939 473.239 527.547 500.296 527.146Z" fill="#DB7F37" style="fill:#DB7F37;fill:color(display-p3 0.8588 0.4980 0.2157);fill-opacity:1;"/>
<path d="M500.204 439.952C478.443 440.275 461.079 458.162 461.402 479.922C461.725 501.683 479.611 519.047 501.372 518.724C523.133 518.401 540.497 500.498 540.174 478.754C539.852 457.01 521.948 439.629 500.204 439.952ZM496.695 471.026C489.137 474.224 480.74 471.446 477.94 464.816C475.14 458.203 478.991 450.24 486.549 447.043C494.107 443.845 502.504 446.622 505.321 453.235C508.121 459.865 504.253 467.828 496.695 471.026Z" fill="#48261D" style="fill:#48261D;fill:color(display-p3 0.2824 0.1490 0.1137);fill-opacity:1;"/>
<path d="M496.695 471.026C489.137 474.224 480.74 471.446 477.939 464.816C475.139 458.203 478.991 450.24 486.549 447.042C494.107 443.845 502.504 446.622 505.32 453.235C508.121 459.865 504.253 467.828 496.695 471.026Z" fill="white" style="fill:white;fill-opacity:1;"/>
<path d="M260.394 530.705C287.451 530.304 309.059 508.044 308.658 480.988C308.257 453.931 285.997 432.322 258.94 432.723C231.883 433.125 210.275 455.384 210.676 482.441C211.077 509.498 233.337 531.107 260.394 530.705Z" fill="#DB7F37" style="fill:#DB7F37;fill:color(display-p3 0.8588 0.4980 0.2157);fill-opacity:1;"/>
<path d="M257.916 443.547C236.156 443.869 218.792 461.756 219.115 483.517C219.437 505.278 237.324 522.642 259.085 522.319C280.846 521.996 298.21 504.092 297.887 482.348C297.564 460.604 279.661 443.224 257.916 443.547ZM280.908 467.74C278.289 474.45 269.978 477.475 262.329 474.503C254.679 471.531 250.593 463.686 253.196 456.976C255.798 450.283 264.109 447.257 271.759 450.229C279.408 453.201 283.511 461.046 280.908 467.74Z" fill="#48261D" style="fill:#48261D;fill:color(display-p3 0.2824 0.1490 0.1137);fill-opacity:1;"/>
<path d="M280.908 467.74C278.289 474.45 269.978 477.475 262.328 474.503C254.679 471.531 250.593 463.686 253.195 456.976C255.798 450.283 264.109 447.257 271.759 450.229C279.408 453.201 283.511 461.046 280.908 467.74Z" fill="white" style="fill:white;fill-opacity:1;"/>
<path d="M550.332 432.722C550.345 433.622 550.342 434.489 550.305 435.391C508.142 418.57 468.593 429.564 449.509 437.169C449.428 436.187 449.397 435.203 449.382 434.219C448.996 408.206 468.338 386.504 493.576 383.378C493.726 383.359 493.876 383.323 494.026 383.321C494.842 383.225 495.675 383.146 496.508 383.084C497.357 383.021 498.241 382.992 499.091 382.979L499.191 382.977C500.008 382.965 500.842 382.97 501.643 383.008C501.71 383.007 501.794 383.006 501.86 383.021C502.644 383.026 503.462 383.081 504.264 383.152C529.748 385.359 549.944 406.559 550.332 432.705L550.332 432.722Z" fill="#E7C8A6" style="fill:#E7C8A6;fill:color(display-p3 0.9059 0.7843 0.6510);fill-opacity:1;"/>
<path d="M550.76 532.42C548.006 556.995 527.343 576.282 501.981 576.658C476.618 577.034 455.461 558.451 451.93 534.019C463.872 532.958 508.686 529.458 550.76 532.42Z" fill="#E7C8A6" style="fill:#E7C8A6;fill:color(display-p3 0.9059 0.7843 0.6510);fill-opacity:1;"/>
<path d="M309.079 436.301C309.092 437.201 309.089 438.068 309.052 438.97C266.889 422.149 227.34 433.144 208.256 440.749C208.175 439.766 208.144 438.782 208.129 437.798C207.743 411.785 227.085 390.083 252.324 386.957C252.473 386.938 252.623 386.902 252.773 386.9C253.589 386.805 254.422 386.725 255.255 386.663C256.104 386.6 256.988 386.571 257.838 386.558L257.938 386.557C258.755 386.544 259.589 386.549 260.391 386.587C260.457 386.586 260.541 386.585 260.608 386.6C261.391 386.605 262.21 386.66 263.011 386.731C288.495 388.939 308.691 410.138 309.079 436.284L309.079 436.301Z" fill="#E7C8A6" style="fill:#E7C8A6;fill:color(display-p3 0.9059 0.7843 0.6510);fill-opacity:1;"/>
<path d="M309.507 535.999C306.753 560.574 286.091 579.861 260.728 580.237C235.365 580.613 214.208 562.014 210.677 537.599C222.619 536.537 267.433 533.037 309.507 535.999Z" fill="#E7C8A6" style="fill:#E7C8A6;fill:color(display-p3 0.9059 0.7843 0.6510);fill-opacity:1;"/>
<path d="M721.82 414.648C718.825 411.741 714.715 410.117 710.546 410.179L636.859 411.272C633.341 411.325 629.907 412.56 627.154 414.769L620.215 420.342C619.528 418.951 618.79 417.578 618.002 416.205C618.548 415.864 619.093 415.522 619.671 415.147C625.75 411.17 633.352 405.303 639.517 397.073C641.791 394.037 641.947 389.948 639.948 386.726C637.932 383.503 634.188 381.874 630.463 382.58C625.54 383.52 619.847 384.272 614.511 384.334C612.11 384.37 609.79 384.271 607.668 384.019C596.841 382.762 584.805 379.772 571.738 377.03C558.672 374.305 544.542 371.846 529.368 372.071C517.479 372.248 504.947 374.101 492.04 378.729C483.645 381.739 475.102 385.952 466.445 391.518C464.594 392.68 462.76 393.874 460.994 395.135C459.839 395.952 458.734 396.819 457.613 397.67C457.547 397.721 457.464 397.772 457.398 397.84C456.129 398.81 454.859 399.796 453.64 400.798C453.244 401.104 452.865 401.393 452.469 401.716L452.503 401.749C440.641 411.632 431.218 422.879 424.493 435.004C421.293 440.789 418.696 446.765 416.735 452.866C396.946 452.325 379.637 452.549 379.504 452.551L379.42 452.552C379.287 452.554 361.979 452.861 342.215 453.971C340.074 447.932 337.318 442.035 333.931 436.348C326.849 424.428 317.096 413.465 304.946 403.938L304.979 403.904C304.574 403.593 304.187 403.315 303.782 403.021C302.533 402.056 301.235 401.108 299.937 400.176C299.87 400.127 299.785 400.078 299.718 400.029C298.572 399.212 297.442 398.379 296.263 397.595C294.444 396.388 292.592 395.248 290.708 394.142C281.906 388.819 273.241 384.878 264.744 382.118C251.705 377.875 239.124 376.394 227.235 376.57C212.061 376.796 198.01 379.673 185.03 382.784C172.051 385.912 160.108 389.258 149.324 390.836C147.21 391.151 144.878 391.319 142.493 391.354C137.157 391.433 131.445 390.867 126.496 390.074C122.752 389.479 119.041 391.218 117.139 394.499C115.219 397.78 115.513 401.862 117.876 404.829C124.283 412.873 132.055 418.512 138.249 422.306C138.822 422.664 139.394 422.989 139.949 423.315C139.219 424.693 138.522 426.104 137.86 427.515L130.758 422.15C127.941 420.024 124.489 418.891 120.954 418.943L47.2005 420.037C43.0317 420.099 38.9714 421.844 36.0637 424.839C33.156 427.834 31.5325 431.945 31.5943 436.114L31.8063 450.404C31.8682 454.573 33.6129 458.633 36.6082 461.541C39.6034 464.448 43.7138 466.072 47.8825 466.01L68.6929 465.701C73.1117 465.636 77.2371 463.773 80.2072 460.494L88.7075 451.111L115.921 450.707L129.702 461.127C129.599 463.18 129.563 465.249 129.593 467.3C129.863 485.442 135.035 503.545 143.95 519.874C152.865 536.187 165.54 550.76 181.097 561.754C201.374 576.08 224.371 582.61 246.599 582.281C263.44 582.031 279.84 577.868 294.438 570.229C309.018 562.591 321.795 551.427 331.191 537.244C341.959 521.04 347.399 503.213 347.536 485.465C354.768 485.091 361.586 484.806 367.07 484.625C370.988 484.5 374.222 484.402 376.49 484.351C377.624 484.335 378.507 484.305 379.091 484.296C379.391 484.292 379.608 484.289 379.758 484.286L379.925 484.284L380.091 484.281C381.976 484.253 396.034 484.128 412.334 484.503C413.014 502.239 418.98 519.897 430.207 535.775C440.02 549.673 453.123 560.453 467.924 567.656C482.724 574.858 499.257 578.532 516.099 578.282C538.327 577.952 561.12 570.759 580.962 555.821C596.187 544.371 608.424 529.429 616.851 512.858C625.262 496.289 629.894 478.04 629.642 459.881C629.611 457.83 629.514 455.763 629.35 453.714L642.816 442.89L670.029 442.486L678.804 451.613C681.853 454.786 686.049 456.542 690.468 456.477L711.278 456.168C715.447 456.106 719.507 454.361 722.415 451.366C725.323 448.371 726.946 444.26 726.884 440.092L726.672 425.801C726.611 421.632 724.866 417.572 721.871 414.664L721.82 414.648ZM315.863 527.081C308.245 538.585 297.872 547.662 285.89 553.944C273.891 560.227 260.283 563.698 246.293 563.905C227.817 564.179 208.74 558.808 191.649 546.737C178.502 537.458 167.626 524.96 160.014 511.047C152.402 497.133 148.122 481.819 147.902 466.995C147.794 459.724 148.655 452.556 150.571 445.69C152.471 438.807 155.425 432.225 159.536 426.026C166.274 415.869 175.636 408.375 186.785 403.256C197.917 398.137 210.837 395.494 224.144 395.296C235.049 395.135 246.196 396.604 256.781 399.599C265.457 402.039 273.731 405.518 281.201 409.878C284.954 412.157 288.795 414.752 292.692 417.696C303.624 426.107 312.121 435.638 318.109 445.739C325.276 457.825 328.953 470.696 329.145 483.603C329.362 498.26 325.112 513.067 315.846 527.081L315.863 527.081ZM600.466 504.529C593.287 518.679 582.769 531.477 569.903 541.141C553.194 553.698 534.269 559.633 515.793 559.924C501.803 560.131 488.098 557.066 475.918 551.142C463.738 545.218 453.117 536.436 445.161 525.179C435.467 511.446 430.796 496.772 430.579 482.115C430.387 469.192 433.681 456.233 440.486 443.94C446.188 433.665 454.382 423.887 465.061 415.155C468.885 412.097 472.631 409.389 476.314 406.999C483.652 402.421 491.819 398.714 500.419 396.001C510.91 392.693 522.008 390.894 532.914 390.732C546.22 390.535 559.213 392.794 570.492 397.58C581.788 402.366 591.369 409.596 598.404 419.532C602.697 425.606 605.829 432.114 607.949 438.921C610.051 445.728 611.124 452.867 611.249 460.137C611.469 474.944 607.645 490.379 600.449 504.529L600.466 504.529Z" fill="#382D3B" style="fill:#382D3B;fill:color(display-p3 0.2196 0.1765 0.2314);fill-opacity:1;"/>
</svg>
